<svg xmlns="http://www.w3.org/2000/svg" viewBox="19 19 62 62"><path d="M35,81H65A16,16,0,0,0,81,65V35A16,16,0,0,0,65,19H35A16,16,0,0,0,19,35V65A16,16,0,0,0,35,81ZM25,35A10,10,0,0,1,35,25H65A10,10,0,0,1,75,35V65A10,10,0,0,1,65,75H35A10,10,0,0,1,25,65Z"/><path d="M43.47,48.72h0a1.81,1.81,0,0,1,0,2.56L37,57.72a3.16,3.16,0,0,0-.51,4,3,3,0,0,0,4.6.42l6.6-6.59a7.82,7.82,0,0,0,0-11.06l-6.6-6.59a3,3,0,0,0-4.65.5,3.05,3.05,0,0,0,.48,3.82Z"/><path d="M61,63a3,3,0,0,0,3-3V40a3,3,0,0,0-6,0V60A3,3,0,0,0,61,63Z"/></svg>