<svg xmlns="http://www.w3.org/2000/svg" data-name="Layer 1" viewBox="0 0 24 24" x="0px" y="0px">
	<title>display</title>
	<path d="M20,1.25H4A2.752,2.752,0,0,0,1.25,4V15A2.752,2.752,0,0,0,4,17.75H8.085l-.7,3.5H6a.75.75,0,0,0,0,1.5H18a.75.75,0,0,0,0-1.5H16.615l-.7-3.5H20A2.752,2.752,0,0,0,22.75,15V4A2.752,2.752,0,0,0,20,1.25Zm-11.085,20,.7-3.5h4.77l.7,3.5ZM21.25,15A1.252,1.252,0,0,1,20,16.25H4A1.252,1.252,0,0,1,2.75,15V13.75h18.5Zm0-2.75H2.75V4A1.252,1.252,0,0,1,4,2.75H20A1.252,1.252,0,0,1,21.25,4Z"/>
</svg>