<svg xmlns="http://www.w3.org/2000/svg" data-name="Layer 1" viewBox="0 0 24 24" x="0px" y="0px">
	<title>edit</title>
	<path d="M2.956,18.79a1.818,1.818,0,0,0,.253-.019l3.63-.518a.921.921,0,0,0,.113-.035.821.821,0,0,0,.084-.027.736.736,0,0,0,.227-.15L17.869,7.434a3.748,3.748,0,0,0,0-5.3,3.839,3.839,0,0,0-5.3,0L1.959,12.737a.745.745,0,0,0-.151.227c-.012.028-.017.057-.027.087a.712.712,0,0,0-.034.111l-.518,3.63a1.751,1.751,0,0,0,1.727,2Zm10.671-15.6a2.305,2.305,0,0,1,3.182,0,2.251,2.251,0,0,1,0,3.183L6.732,16.45,3.55,13.268ZM3.02,14.858,5.141,16.98,3,17.286a.242.242,0,0,1-.212-.07A.248.248,0,0,1,2.713,17Z"/>
	<path d="M4.25,21a.75.75,0,0,0,.75.75H22a.75.75,0,0,0,0-1.5H5A.75.75,0,0,0,4.25,21Z"/>
</svg>