<svg xmlns="http://www.w3.org/2000/svg" viewBox="0 0 100 100">
	<path d="M21.61 84.7h53.9c4.99 0 9.03-4.05 9.04-9.04V43.03a3.79 3.79 0 1 0-7.58 0v32.63c0 .8-.65 1.46-1.46 1.46h-53.9c-.8 0-1.45-.65-1.45-1.46V21.75c0-.8.65-1.45 1.45-1.46H54.24a3.79 3.79 0 1 0 0-7.58H21.61c-4.99 0-9.03 4.04-9.04 9.03v53.91c.01 5 4.05 9.03 9.04 9.05Z"/>
	<path d="M84.55 8.33H69.4a3.79 3.79 0 1 0 0 7.58h6l-27.63 27.63a3.79 3.79 0 0 0 5.36 5.36l27.63-27.63v6a3.79 3.79 0 1 0 7.58 0V12.12a3.79 3.79 0 0 0-3.79-3.79Z"/>
</svg>