<svg xmlns="http://www.w3.org/2000/svg" data-name="Layer 1" viewBox="0 0 24 30" x="0px" y="0px"><title>graph, bar graph, chart, analyse, arrow, statistics, analytics, presentation, diagram, bar graphs, </title><path d="M4,21.75H22a.75.75,0,0,0,0-1.5h-.25V5A.75.75,0,0,0,21,4.25H17a.75.75,0,0,0-.75.75V20.25h-.5V9A.75.75,0,0,0,15,8.25H11a.75.75,0,0,0-.75.75V20.25h-.5V13A.75.75,0,0,0,9,12.25H5a.75.75,0,0,0-.75.75v7.25H4A1.252,1.252,0,0,1,2.75,19V2a.75.75,0,0,0-1.5,0V19A2.752,2.752,0,0,0,4,21.75Z"/><text x="0" y="39" fill="#000000" font-size="5px" font-weight="bold" font-family="'Helvetica Neue', Helvetica, Arial-Unicode, Arial, Sans-serif">Created by Nursila</text><text x="0" y="44" fill="#000000" font-size="5px" font-weight="bold" font-family="'Helvetica Neue', Helvetica, Arial-Unicode, Arial, Sans-serif">from the Noun Project</text></svg>