<svg xmlns="http://www.w3.org/2000/svg" data-name="Layer 1" viewBox="0 0 24 24" x="0px" y="0px">
	<title>group</title>
	<path d="M12,1.25A10.75,10.75,0,1,0,22.75,12,10.762,10.762,0,0,0,12,1.25Zm0,20a9.229,9.229,0,0,1-7.324-3.623,7.193,7.193,0,0,0,2.633,0l-.044.223a.75.75,0,0,0,.149.616c.171.214,1.2,1.281,4.586,1.281s4.415-1.067,4.586-1.281a.75.75,0,0,0,.149-.616l-.044-.223a7.193,7.193,0,0,0,2.633,0A9.229,9.229,0,0,1,12,21.25Zm9.029-7.261a3.489,3.489,0,0,0-1.244-1.244,2.5,2.5,0,1,0-3.57,0,3.5,3.5,0,0,0-1.02.9,4.422,4.422,0,0,0-1.627-1.1,3,3,0,1,0-3.136,0,4.422,4.422,0,0,0-1.627,1.1,3.5,3.5,0,0,0-1.02-.9,2.5,2.5,0,1,0-3.57,0,3.489,3.489,0,0,0-1.244,1.244,9.25,9.25,0,1,1,18.058,0Z"/>
</svg>