<svg xmlns="http://www.w3.org/2000/svg" data-name="Layer 1" viewBox="0 0 24 24" x="0px" y="0px">
	<title>info</title>
	<path d="M13.5,17.25h-.75V10A.75.75,0,0,0,12,9.25H11a.75.75,0,0,0,0,1.5h.25v6.5H10.5a.75.75,0,0,0,0,1.5h3a.75.75,0,0,0,0-1.5Z"/>
	<circle cx="12" cy="7" r="1.25"/>
	<path d="M18,1.25H6A4.756,4.756,0,0,0,1.25,6V18A4.756,4.756,0,0,0,6,22.75H18A4.756,4.756,0,0,0,22.75,18V6A4.756,4.756,0,0,0,18,1.25ZM21.25,18A3.254,3.254,0,0,1,18,21.25H6A3.254,3.254,0,0,1,2.75,18V6A3.254,3.254,0,0,1,6,2.75H18A3.254,3.254,0,0,1,21.25,6Z"/>
</svg>