<svg xmlns="http://www.w3.org/2000/svg" data-name="Layer 1" viewBox="0 0 24 30" x="0px" y="0px"><title>notification, notification bell, bell, notice, notif, attention, alert, alarm, ring, ringing, ui, </title><path d="M12,1.25a.75.75,0,0,0-.75.75V3.316A5.638,5.638,0,0,0,6.48,7.775L5.309,13.63,4.091,14.849a2.871,2.871,0,0,0,2.03,4.9H8.775a3.233,3.233,0,0,0,6.45,0h2.654a2.871,2.871,0,0,0,2.03-4.9L18.69,13.63,17.52,7.775a5.638,5.638,0,0,0-4.77-4.459V2A.75.75,0,0,0,12,1.25Zm0,20a1.748,1.748,0,0,1-1.725-1.5h3.45A1.748,1.748,0,0,1,12,21.25Zm-1.221-3a1.741,1.741,0,0,1,2.442,0Zm5.27-10.181,1.216,6.078a.745.745,0,0,0,.2.383l1.379,1.379a1.372,1.372,0,0,1-.97,2.341H15a3.249,3.249,0,0,0-6,0H6.121a1.372,1.372,0,0,1-.97-2.341L6.53,14.53a.737.737,0,0,0,.205-.383L7.951,8.069a4.129,4.129,0,0,1,8.1,0Z"/><text x="0" y="39" fill="#000000" font-size="5px" font-weight="bold" font-family="'Helvetica Neue', Helvetica, Arial-Unicode, Arial, Sans-serif">Created by Nursila</text><text x="0" y="44" fill="#000000" font-size="5px" font-weight="bold" font-family="'Helvetica Neue', Helvetica, Arial-Unicode, Arial, Sans-serif">from the Noun Project</text></svg>