<svg xmlns="http://www.w3.org/2000/svg" data-name="Layer 1" viewBox="0 0 24 24" x="0px" y="0px">
	<title>scan</title>
	<path d="M2,9.75A.75.75,0,0,0,2.75,9V4A1.252,1.252,0,0,1,4,2.75H9.238a.75.75,0,0,0,0-1.5H4A2.752,2.752,0,0,0,1.25,4V9A.75.75,0,0,0,2,9.75Z"/>
	<path d="M22,14.25a.75.75,0,0,0-.75.75v5A1.252,1.252,0,0,1,20,21.25H15a.75.75,0,0,0,0,1.5h5A2.752,2.752,0,0,0,22.75,20V15A.75.75,0,0,0,22,14.25Z"/>
	<path d="M4,22.75H9.238a.75.75,0,0,0,0-1.5H4A1.252,1.252,0,0,1,2.75,20V15a.75.75,0,0,0-1.5,0v5A2.752,2.752,0,0,0,4,22.75Z"/>
	<path d="M20,1.25H15a.75.75,0,0,0,0,1.5h5A1.252,1.252,0,0,1,21.25,4V9a.75.75,0,0,0,1.5,0V4A2.752,2.752,0,0,0,20,1.25Z"/>
	<path d="M9.5,4.75h-3A1.752,1.752,0,0,0,4.75,6.5v3A1.752,1.752,0,0,0,6.5,11.25h3A1.752,1.752,0,0,0,11.25,9.5v-3A1.752,1.752,0,0,0,9.5,4.75ZM9.75,9.5a.25.25,0,0,1-.25.25h-3a.25.25,0,0,1-.25-.25v-3a.25.25,0,0,1,.25-.25h3a.25.25,0,0,1,.25.25Z"/>
	<path d="M17.5,11.25A1.752,1.752,0,0,0,19.25,9.5v-3A1.752,1.752,0,0,0,17.5,4.75h-3A1.752,1.752,0,0,0,12.75,6.5v3a1.752,1.752,0,0,0,1.75,1.75ZM14.25,9.5v-3a.25.25,0,0,1,.25-.25h3a.25.25,0,0,1,.25.25v3a.25.25,0,0,1-.25.25h-3A.25.25,0,0,1,14.25,9.5Z"/>
	<path d="M9.5,12.75h-3A1.752,1.752,0,0,0,4.75,14.5v3A1.752,1.752,0,0,0,6.5,19.25h3a1.752,1.752,0,0,0,1.75-1.75v-3A1.752,1.752,0,0,0,9.5,12.75Zm.25,4.75a.25.25,0,0,1-.25.25h-3a.25.25,0,0,1-.25-.25v-3a.25.25,0,0,1,.25-.25h3a.25.25,0,0,1,.25.25Z"/>
	<path d="M16,19.25A3.25,3.25,0,1,0,12.75,16,3.254,3.254,0,0,0,16,19.25Zm0-5A1.75,1.75,0,1,1,14.25,16,1.752,1.752,0,0,1,16,14.25Z"/>
</svg>