<svg xmlns="http://www.w3.org/2000/svg" data-name="Layer 1" viewBox="0 0 24 30" x="0px" y="0px"><title>config, control, adjust, setting, configuration, equalizer, adjustment, option, ui, user interface, </title><path d="M18.586,6.25H12.112a2.237,2.237,0,0,0-4.224,0H6a.75.75,0,0,0,0,1.5H7.888a2.237,2.237,0,0,0,4.224,0h6.474a.75.75,0,0,0,0-1.5ZM10,7.75A.75.75,0,1,1,10.75,7,.751.751,0,0,1,10,7.75Z"/><path d="M18.586,11.25H16.112a2.237,2.237,0,0,0-4.224,0H6a.75.75,0,0,0,0,1.5h5.888a2.237,2.237,0,0,0,4.224,0h2.474a.75.75,0,0,0,0-1.5ZM14,12.75a.75.75,0,1,1,.75-.75A.751.751,0,0,1,14,12.75Z"/><path d="M18.586,16.25H12.112a2.237,2.237,0,0,0-4.224,0H6a.75.75,0,0,0,0,1.5H7.888a2.237,2.237,0,0,0,4.224,0h6.474a.75.75,0,0,0,0-1.5ZM10,17.75a.75.75,0,1,1,.75-.75A.751.751,0,0,1,10,17.75Z"/><path d="M22.75,7A4.756,4.756,0,0,0,18,2.25H6A4.756,4.756,0,0,0,1.25,7V17A4.756,4.756,0,0,0,6,21.75H18A4.756,4.756,0,0,0,22.75,17Zm-1.5,10A3.254,3.254,0,0,1,18,20.25H6A3.254,3.254,0,0,1,2.75,17V7A3.254,3.254,0,0,1,6,3.75H18A3.254,3.254,0,0,1,21.25,7Z"/><text x="0" y="39" fill="#000000" font-size="5px" font-weight="bold" font-family="'Helvetica Neue', Helvetica, Arial-Unicode, Arial, Sans-serif">Created by Nursila</text><text x="0" y="44" fill="#000000" font-size="5px" font-weight="bold" font-family="'Helvetica Neue', Helvetica, Arial-Unicode, Arial, Sans-serif">from the Noun Project</text></svg>